<svg width="25" height="25" viewBox="0 0 25 25" fill="none" xmlns="http://www.w3.org/2000/svg">
<path d="M3.12498 5.20833C2.98695 5.20637 2.84991 5.23187 2.72181 5.28335C2.59372 5.33482 2.47714 5.41124 2.37884 5.50816C2.28053 5.60508 2.20248 5.72057 2.1492 5.84792C2.09592 5.97527 2.06848 6.11195 2.06848 6.24999C2.06848 6.38804 2.09592 6.52471 2.1492 6.65206C2.20248 6.77941 2.28053 6.8949 2.37884 6.99183C2.47714 7.08875 2.59372 7.16516 2.72181 7.21664C2.84991 7.26811 2.98695 7.29361 3.12498 7.29166H21.875C22.013 7.29361 22.1501 7.26811 22.2782 7.21664C22.4062 7.16516 22.5228 7.08875 22.6211 6.99183C22.7194 6.8949 22.7975 6.77941 22.8508 6.65206C22.904 6.52471 22.9315 6.38804 22.9315 6.24999C22.9315 6.11195 22.904 5.97527 22.8508 5.84792C22.7975 5.72057 22.7194 5.60508 22.6211 5.50816C22.5228 5.41124 22.4062 5.33482 22.2782 5.28335C22.1501 5.23187 22.013 5.20637 21.875 5.20833H3.12498ZM3.12498 11.4583C2.98695 11.4564 2.84991 11.4819 2.72181 11.5333C2.59372 11.5848 2.47714 11.6612 2.37884 11.7582C2.28053 11.8551 2.20248 11.9706 2.1492 12.0979C2.09592 12.2253 2.06848 12.3619 2.06848 12.5C2.06848 12.638 2.09592 12.7747 2.1492 12.9021C2.20248 13.0294 2.28053 13.1449 2.37884 13.2418C2.47714 13.3387 2.59372 13.4152 2.72181 13.4666C2.84991 13.5181 2.98695 13.5436 3.12498 13.5417H21.875C22.013 13.5436 22.1501 13.5181 22.2782 13.4666C22.4062 13.4152 22.5228 13.3387 22.6211 13.2418C22.7194 13.1449 22.7975 13.0294 22.8508 12.9021C22.904 12.7747 22.9315 12.638 22.9315 12.5C22.9315 12.3619 22.904 12.2253 22.8508 12.0979C22.7975 11.9706 22.7194 11.8551 22.6211 11.7582C22.5228 11.6612 22.4062 11.5848 22.2782 11.5333C22.1501 11.4819 22.013 11.4564 21.875 11.4583H3.12498ZM3.12498 17.7083C2.98695 17.7064 2.84991 17.7319 2.72181 17.7833C2.59372 17.8348 2.47714 17.9112 2.37884 18.0082C2.28053 18.1051 2.20248 18.2206 2.1492 18.3479C2.09592 18.4753 2.06848 18.6119 2.06848 18.75C2.06848 18.888 2.09592 19.0247 2.1492 19.1521C2.20248 19.2794 2.28053 19.3949 2.37884 19.4918C2.47714 19.5887 2.59372 19.6652 2.72181 19.7166C2.84991 19.7681 2.98695 19.7936 3.12498 19.7917H21.875C22.013 19.7936 22.1501 19.7681 22.2782 19.7166C22.4062 19.6652 22.5228 19.5887 22.6211 19.4918C22.7194 19.3949 22.7975 19.2794 22.8508 19.1521C22.904 19.0247 22.9315 18.888 22.9315 18.75C22.9315 18.6119 22.904 18.4753 22.8508 18.3479C22.7975 18.2206 22.7194 18.1051 22.6211 18.0082C22.5228 17.9112 22.4062 17.8348 22.2782 17.7833C22.1501 17.7319 22.013 17.7064 21.875 17.7083H3.12498Z" fill="white"/>
</svg>
